<svg width="72" height="75" viewBox="0 0 72 75" fill="none" xmlns="http://www.w3.org/2000/svg">
<path fill-rule="evenodd" clip-rule="evenodd" d="M70 35.2863C70 30.1577 65.8916 26 60.8246 26H11.1747C6.10775 26 2 30.1577 2 35.2863V46.2854C2 46.3368 2.00667 46.386 2.00734 46.438C2.00667 46.4893 2 46.538 2 46.5899V61.4916C2 66.6209 6.10775 70.7779 11.1747 70.7779H12.3001C17.367 70.7779 21.4748 66.6209 21.4748 61.4916V52.4767H50.5252V61.7137C50.5252 66.843 54.633 71 59.6999 71H60.8253C65.8923 71 70 66.843 70 61.7137V46.8114C70 46.7223 69.9893 46.6365 69.9867 46.5481C69.9887 46.4596 70 46.3746 70 46.2848V35.2863Z" stroke="#001E7E" stroke-width="2"/>
<path fill-rule="evenodd" clip-rule="evenodd" d="M17.8218 39.0331H16.6778V37.9659C16.6778 36.3279 15.2552 35 13.4997 35C11.7448 35 10.3222 36.3279 10.3222 37.9659V39.0331H9.1782C7.42265 39.0331 6 40.3617 6 42.0003C6 43.637 7.42265 44.9656 9.1782 44.9656H10.3222V46.0341C10.3222 47.6721 11.7448 49 13.4997 49C15.2552 49 16.6778 47.6721 16.6778 46.0341V44.9656H17.8218C19.5774 44.9656 21 43.637 21 42.0003C21 40.3617 19.5774 39.0331 17.8218 39.0331Z" stroke="#001E7E" stroke-width="2"/>
<path d="M58 38C59.1046 38 60 37.1046 60 36C60 34.8954 59.1046 34 58 34C56.8954 34 56 34.8954 56 36C56 37.1046 56.8954 38 58 38Z" stroke="#001E7E" stroke-width="2"/>
<path d="M58 49C59.1046 49 60 48.1046 60 47C60 45.8954 59.1046 45 58 45C56.8954 45 56 45.8954 56 47C56 48.1046 56.8954 49 58 49Z" stroke="#001E7E" stroke-width="2"/>
<path d="M64 43C65.1046 43 66 42.1046 66 41C66 39.8954 65.1046 39 64 39C62.8954 39 62 39.8954 62 41C62 42.1046 62.8954 43 64 43Z" stroke="#001E7E" stroke-width="2"/>
<path d="M53 43C54.1046 43 55 42.1046 55 41C55 39.8954 54.1046 39 53 39C51.8954 39 51 39.8954 51 41C51 42.1046 51.8954 43 53 43Z" stroke="#001E7E" stroke-width="2"/>
<path d="M37 20.066C37 15.0224 37 9.9781 37 4.93446C37 3.68851 35 3.68851 35 4.93446C35 9.9781 35 15.0224 35 20.066C35 21.3113 37 21.3113 37 20.066Z" fill="#012179"/>
<path d="M40.9895 20C38.3298 20 35.6702 20 33.0105 20C32.4594 20 32 20.4003 32 20.8792C32 22.6264 32 24.3736 32 26.1208C32 26.5997 32.4594 27 33.0105 27C35.6702 27 38.3298 27 40.9895 27C41.5405 27 42 26.5997 42 26.1208C42 24.3736 42 22.6264 42 20.8792C42 19.745 39.979 19.745 39.979 20.8792C39.979 22.6264 39.979 24.3736 39.979 26.1208C40.3158 25.8278 40.6526 25.5347 40.9895 25.2416C38.3298 25.2416 35.6702 25.2416 33.0105 25.2416C33.3473 25.5347 33.6842 25.8278 34.021 26.1208C34.021 24.3736 34.021 22.6264 34.021 20.8792C33.6842 21.1722 33.3473 21.4653 33.0105 21.7584C35.6702 21.7584 38.3298 21.7584 40.9895 21.7584C42.2923 21.7584 42.2923 20 40.9895 20Z" fill="#012179"/>
<path d="M33 42C33 42.5521 32.5774 43 32.0564 43H29.9436C29.4226 43 29 42.5521 29 42C29 41.4479 29.4226 41 29.9436 41H32.0564C32.5774 41.0006 33 41.4479 33 42Z" fill="#012179"/>
<path d="M42 42C42 42.5521 41.5774 43 41.0564 43H38.9436C38.4226 43 38 42.5521 38 42C38 41.4479 38.4226 41 38.9436 41H41.0564C41.5774 41.0006 42 41.4479 42 42Z" fill="#012179"/>
</svg>
