<svg width="167" height="68" viewBox="0 0 167 68" fill="none" xmlns="http://www.w3.org/2000/svg">
<path fill-rule="evenodd" clip-rule="evenodd" d="M71.2439 31.2863C71.2439 26.1577 67.0603 22 61.9007 22H11.3426C6.18289 22 2 26.1577 2 31.2863V42.2854C2 42.3368 2.00679 42.386 2.00747 42.438C2.00679 42.4893 2 42.538 2 42.5899V57.4916C2 62.6209 6.18289 66.7779 11.3426 66.7779H12.4885C17.6481 66.7779 21.831 62.6209 21.831 57.4916V48.4767H51.4129V57.7137C51.4129 62.843 55.5958 67 60.7554 67H61.9013C67.061 67 71.2439 62.843 71.2439 57.7137V42.8114C71.2439 42.7223 71.233 42.6365 71.2303 42.5481C71.2324 42.4596 71.2439 42.3746 71.2439 42.2848V31.2863Z" stroke="#001E7E" stroke-width="2"/>
<path fill-rule="evenodd" clip-rule="evenodd" d="M18.1112 35.0331H16.9463V33.9659C16.9463 32.3279 15.4977 31 13.71 31C11.9231 31 10.4744 32.3279 10.4744 33.9659V35.0331H9.3095C7.52184 35.0331 6.07317 36.3617 6.07317 38.0003C6.07317 39.637 7.52184 40.9656 9.3095 40.9656H10.4744V42.0341C10.4744 43.6721 11.9231 45 13.71 45C15.4977 45 16.9463 43.6721 16.9463 42.0341V40.9656H18.1112C19.8989 40.9656 21.3476 39.637 21.3476 38.0003C21.3476 36.3617 19.8989 35.0331 18.1112 35.0331Z" stroke="#001E7E" stroke-width="2"/>
<path d="M59.0244 34C60.1492 34 61.061 33.1046 61.061 32C61.061 30.8954 60.1492 30 59.0244 30C57.8996 30 56.9878 30.8954 56.9878 32C56.9878 33.1046 57.8996 34 59.0244 34Z" stroke="#001E7E" stroke-width="2"/>
<path d="M59.0244 45C60.1492 45 61.061 44.1046 61.061 43C61.061 41.8954 60.1492 41 59.0244 41C57.8996 41 56.9878 41.8954 56.9878 43C56.9878 44.1046 57.8996 45 59.0244 45Z" stroke="#001E7E" stroke-width="2"/>
<path d="M65.1342 39C66.2589 39 67.1707 38.1046 67.1707 37C67.1707 35.8954 66.2589 35 65.1342 35C64.0094 35 63.0976 35.8954 63.0976 37C63.0976 38.1046 64.0094 39 65.1342 39Z" stroke="#001E7E" stroke-width="2"/>
<path d="M53.9329 39C55.0577 39 55.9695 38.1046 55.9695 37C55.9695 35.8954 55.0577 35 53.9329 35C52.8082 35 51.8963 35.8954 51.8963 37C51.8963 38.1046 52.8082 39 53.9329 39Z" stroke="#001E7E" stroke-width="2"/>
<path d="M37.6402 16.066C37.6402 11.0224 37.6402 5.9781 37.6402 0.934455C37.6402 -0.311485 35.6037 -0.311485 35.6037 0.934455C35.6037 5.9781 35.6037 11.0224 35.6037 16.066C35.6037 17.3113 37.6402 17.3113 37.6402 16.066Z" fill="#012179"/>
<path d="M41.7027 16C38.9944 16 36.2861 16 33.5778 16C33.0166 16 32.5488 16.4003 32.5488 16.8792C32.5488 18.6264 32.5488 20.3736 32.5488 22.1208C32.5488 22.5997 33.0166 23 33.5778 23C36.2861 23 38.9944 23 41.7027 23C42.2639 23 42.7317 22.5997 42.7317 22.1208C42.7317 20.3736 42.7317 18.6264 42.7317 16.8792C42.7317 15.745 40.6737 15.745 40.6737 16.8792C40.6737 18.6264 40.6737 20.3736 40.6737 22.1208C41.0167 21.8278 41.3597 21.5347 41.7027 21.2416C38.9944 21.2416 36.2861 21.2416 33.5778 21.2416C33.9208 21.5347 34.2638 21.8278 34.6068 22.1208C34.6068 20.3736 34.6068 18.6264 34.6068 16.8792C34.2638 17.1722 33.9208 17.4653 33.5778 17.7584C36.2861 17.7584 38.9944 17.7584 41.7027 17.7584C43.0294 17.7584 43.0294 16 41.7027 16Z" fill="#012179"/>
<path d="M33.5671 38C33.5671 38.5521 33.1368 39 32.6063 39H30.4547C29.9242 39 29.4939 38.5521 29.4939 38C29.4939 37.4479 29.9242 37 30.4547 37H32.6063C33.1368 37.0006 33.5671 37.4479 33.5671 38Z" fill="#012179"/>
<path d="M42.7317 38C42.7317 38.5521 42.3014 39 41.7709 39H39.6193C39.0888 39 38.6585 38.5521 38.6585 38C38.6585 37.4479 39.0888 37 39.6193 37H41.7709C42.3014 37.0006 42.7317 37.4479 42.7317 38Z" fill="#012179"/>
<path d="M88.87 39.915H96.34V48.9C95.23 49.71 94.045 50.305 92.785 50.685C91.535 51.055 90.21 51.24 88.81 51.24C87.02 51.24 85.4 50.965 83.95 50.415C82.5 49.855 81.26 49.08 80.23 48.09C79.2 47.1 78.405 45.925 77.845 44.565C77.285 43.205 77.005 41.72 77.005 40.11C77.005 38.48 77.27 36.985 77.8 35.625C78.34 34.265 79.105 33.095 80.095 32.115C81.085 31.135 82.28 30.37 83.68 29.82C85.09 29.27 86.665 28.995 88.405 28.995C89.305 28.995 90.145 29.07 90.925 29.22C91.705 29.36 92.425 29.56 93.085 29.82C93.745 30.07 94.35 30.37 94.9 30.72C95.45 31.07 95.95 31.455 96.4 31.875L95.095 33.885C94.895 34.205 94.635 34.4 94.315 34.47C93.995 34.54 93.645 34.46 93.265 34.23C92.905 34.01 92.55 33.815 92.2 33.645C91.86 33.465 91.495 33.31 91.105 33.18C90.715 33.05 90.29 32.95 89.83 32.88C89.37 32.81 88.84 32.775 88.24 32.775C87.23 32.775 86.315 32.95 85.495 33.3C84.675 33.65 83.975 34.145 83.395 34.785C82.825 35.425 82.385 36.195 82.075 37.095C81.765 37.995 81.61 39 81.61 40.11C81.61 41.31 81.78 42.385 82.12 43.335C82.46 44.275 82.94 45.07 83.56 45.72C84.18 46.37 84.92 46.865 85.78 47.205C86.65 47.545 87.615 47.715 88.675 47.715C89.395 47.715 90.035 47.645 90.595 47.505C91.165 47.355 91.72 47.155 92.26 46.905V43.245H89.8C89.51 43.245 89.28 43.17 89.11 43.02C88.95 42.86 88.87 42.66 88.87 42.42V39.915ZM107.504 44.535C106.494 44.585 105.654 44.675 104.984 44.805C104.314 44.925 103.779 45.085 103.379 45.285C102.989 45.485 102.709 45.715 102.539 45.975C102.379 46.225 102.299 46.5 102.299 46.8C102.299 47.4 102.464 47.825 102.794 48.075C103.134 48.325 103.604 48.45 104.204 48.45C104.894 48.45 105.489 48.33 105.989 48.09C106.499 47.84 107.004 47.455 107.504 46.935V44.535ZM99.074 37.68C99.984 36.86 100.989 36.25 102.089 35.85C103.189 35.44 104.379 35.235 105.659 35.235C106.579 35.235 107.399 35.385 108.119 35.685C108.849 35.985 109.464 36.405 109.964 36.945C110.474 37.475 110.864 38.11 111.134 38.85C111.404 39.59 111.539 40.4 111.539 41.28V51H109.649C109.259 51 108.959 50.945 108.749 50.835C108.549 50.725 108.384 50.495 108.254 50.145L107.924 49.155C107.534 49.495 107.154 49.795 106.784 50.055C106.424 50.315 106.049 50.535 105.659 50.715C105.269 50.885 104.849 51.015 104.399 51.105C103.959 51.195 103.464 51.24 102.914 51.24C102.234 51.24 101.614 51.15 101.054 50.97C100.494 50.79 100.009 50.525 99.599 50.175C99.199 49.815 98.889 49.37 98.669 48.84C98.449 48.31 98.339 47.7 98.339 47.01C98.339 46.44 98.484 45.87 98.774 45.3C99.064 44.73 99.559 44.215 100.259 43.755C100.969 43.285 101.909 42.9 103.079 42.6C104.259 42.29 105.734 42.115 107.504 42.075V41.28C107.504 40.31 107.299 39.6 106.889 39.15C106.479 38.69 105.889 38.46 105.119 38.46C104.549 38.46 104.074 38.53 103.694 38.67C103.314 38.8 102.979 38.945 102.689 39.105C102.409 39.255 102.144 39.4 101.894 39.54C101.644 39.67 101.354 39.735 101.024 39.735C100.734 39.735 100.489 39.665 100.289 39.525C100.099 39.375 99.939 39.2 99.809 39L99.074 37.68ZM114.771 51V35.535H117.321C117.841 35.535 118.186 35.775 118.356 36.255L118.596 37.26C118.866 36.98 119.141 36.72 119.421 36.48C119.711 36.24 120.021 36.035 120.351 35.865C120.681 35.685 121.036 35.545 121.416 35.445C121.806 35.345 122.226 35.295 122.676 35.295C123.626 35.295 124.411 35.55 125.031 36.06C125.651 36.56 126.121 37.23 126.441 38.07C126.691 37.58 126.996 37.16 127.356 36.81C127.726 36.45 128.126 36.16 128.556 35.94C128.996 35.72 129.456 35.56 129.936 35.46C130.426 35.35 130.916 35.295 131.406 35.295C132.276 35.295 133.046 35.425 133.716 35.685C134.386 35.945 134.946 36.33 135.396 36.84C135.856 37.34 136.206 37.955 136.446 38.685C136.686 39.415 136.806 40.245 136.806 41.175V51H132.666V41.175C132.666 39.365 131.891 38.46 130.341 38.46C129.991 38.46 129.666 38.52 129.366 38.64C129.076 38.75 128.816 38.92 128.586 39.15C128.366 39.38 128.191 39.665 128.061 40.005C127.941 40.345 127.881 40.735 127.881 41.175V51H123.741V41.175C123.741 40.195 123.546 39.5 123.156 39.09C122.776 38.67 122.211 38.46 121.461 38.46C120.981 38.46 120.526 38.575 120.096 38.805C119.676 39.025 119.281 39.335 118.911 39.735V51H114.771ZM149.893 41.445C149.893 41.015 149.833 40.605 149.713 40.215C149.603 39.825 149.423 39.48 149.173 39.18C148.923 38.88 148.608 38.645 148.228 38.475C147.848 38.295 147.393 38.205 146.863 38.205C145.873 38.205 145.098 38.485 144.538 39.045C143.978 39.605 143.613 40.405 143.443 41.445H149.893ZM143.383 43.905C143.513 45.355 143.923 46.415 144.613 47.085C145.313 47.755 146.223 48.09 147.343 48.09C147.913 48.09 148.403 48.025 148.813 47.895C149.233 47.755 149.598 47.605 149.908 47.445C150.228 47.275 150.513 47.125 150.763 46.995C151.023 46.855 151.278 46.785 151.528 46.785C151.848 46.785 152.098 46.905 152.278 47.145L153.478 48.645C153.038 49.155 152.553 49.58 152.023 49.92C151.493 50.25 150.943 50.515 150.373 50.715C149.803 50.905 149.228 51.035 148.648 51.105C148.068 51.185 147.508 51.225 146.968 51.225C145.888 51.225 144.878 51.05 143.938 50.7C143.008 50.34 142.193 49.815 141.493 49.125C140.803 48.425 140.258 47.56 139.858 46.53C139.458 45.5 139.258 44.305 139.258 42.945C139.258 41.895 139.428 40.905 139.768 39.975C140.118 39.045 140.618 38.235 141.268 37.545C141.918 36.855 142.708 36.31 143.638 35.91C144.568 35.5 145.618 35.295 146.788 35.295C147.778 35.295 148.688 35.455 149.518 35.775C150.358 36.085 151.078 36.54 151.678 37.14C152.288 37.74 152.758 38.48 153.088 39.36C153.428 40.23 153.598 41.225 153.598 42.345C153.598 42.655 153.583 42.91 153.553 43.11C153.523 43.31 153.473 43.47 153.403 43.59C153.333 43.71 153.238 43.795 153.118 43.845C152.998 43.885 152.843 43.905 152.653 43.905H143.383ZM165.782 38.715C165.672 38.885 165.557 39.01 165.437 39.09C165.327 39.16 165.172 39.195 164.972 39.195C164.772 39.195 164.567 39.145 164.357 39.045C164.147 38.945 163.912 38.84 163.652 38.73C163.392 38.61 163.092 38.5 162.752 38.4C162.422 38.3 162.037 38.25 161.597 38.25C160.927 38.25 160.407 38.39 160.037 38.67C159.667 38.94 159.482 39.3 159.482 39.75C159.482 40.06 159.587 40.32 159.797 40.53C160.007 40.74 160.282 40.925 160.622 41.085C160.972 41.235 161.367 41.38 161.807 41.52C162.247 41.65 162.697 41.795 163.157 41.955C163.627 42.115 164.082 42.3 164.522 42.51C164.962 42.72 165.352 42.985 165.692 43.305C166.042 43.615 166.322 43.995 166.532 44.445C166.742 44.885 166.847 45.42 166.847 46.05C166.847 46.8 166.707 47.495 166.427 48.135C166.157 48.765 165.757 49.31 165.227 49.77C164.697 50.23 164.037 50.59 163.247 50.85C162.457 51.11 161.547 51.24 160.517 51.24C159.987 51.24 159.462 51.19 158.942 51.09C158.422 51 157.927 50.87 157.457 50.7C156.987 50.52 156.547 50.315 156.137 50.085C155.727 49.855 155.372 49.605 155.072 49.335L156.032 47.79C156.142 47.61 156.277 47.47 156.437 47.37C156.607 47.27 156.822 47.22 157.082 47.22C157.332 47.22 157.562 47.285 157.772 47.415C157.982 47.535 158.217 47.67 158.477 47.82C158.737 47.96 159.042 48.095 159.392 48.225C159.752 48.345 160.197 48.405 160.727 48.405C161.127 48.405 161.472 48.36 161.762 48.27C162.052 48.18 162.287 48.06 162.467 47.91C162.647 47.75 162.777 47.575 162.857 47.385C162.947 47.185 162.992 46.98 162.992 46.77C162.992 46.43 162.882 46.155 162.662 45.945C162.452 45.725 162.172 45.535 161.822 45.375C161.482 45.215 161.087 45.07 160.637 44.94C160.187 44.81 159.727 44.665 159.257 44.505C158.797 44.345 158.342 44.155 157.892 43.935C157.452 43.715 157.057 43.44 156.707 43.11C156.367 42.77 156.087 42.355 155.867 41.865C155.657 41.375 155.552 40.78 155.552 40.08C155.552 39.44 155.677 38.835 155.927 38.265C156.177 37.685 156.552 37.175 157.052 36.735C157.552 36.295 158.172 35.945 158.912 35.685C159.662 35.425 160.527 35.295 161.507 35.295C162.607 35.295 163.607 35.475 164.507 35.835C165.407 36.195 166.147 36.665 166.727 37.245L165.782 38.715Z" fill="#8840DA"/>
</svg>
